<?xml version="1.0" encoding="UTF-8" standalone="no"?>
<!DOCTYPE svg PUBLIC "-//W3C//DTD SVG 1.1//EN"
 "http://www.w3.org/Graphics/SVG/1.1/DTD/svg11.dtd">
<!-- Generated by graphviz version 2.43.0 (0)
 -->
<!-- Title: %3 Pages: 1 -->
<svg width="1739pt" height="301pt"
 viewBox="0.00 0.00 1738.99 301.38" xmlns="http://www.w3.org/2000/svg" xmlns:xlink="http://www.w3.org/1999/xlink">
<g id="graph0" class="graph" transform="scale(1 1) rotate(0) translate(4 297.38)">
<title>%3</title>
<polygon fill="white" stroke="transparent" points="-4,4 -4,-297.38 1734.99,-297.38 1734.99,4 -4,4"/>
<!-- compose&#45;openvpn.svg -->
<g id="node1" class="node">
<title>compose&#45;openvpn.svg</title>
<ellipse fill="none" stroke="black" cx="112.44" cy="-227.73" rx="112.38" ry="18"/>
<text text-anchor="middle" x="112.44" y="-224.03" font-family="Times,serif" font-size="14.00">compose&#45;openvpn.svg</text>
</g>
<!-- Makefile -->
<g id="node2" class="node">
<title>Makefile</title>
<polygon fill="none" stroke="black" points="150.94,-81.04 73.94,-81.04 73.94,-45.04 150.94,-45.04 150.94,-81.04"/>
<text text-anchor="middle" x="112.44" y="-59.34" font-family="Times,serif" font-size="14.00">Makefile</text>
</g>
<!-- compose&#45;openvpn.svg&#45;&gt;Makefile -->
<g id="edge1" class="edge">
<title>compose&#45;openvpn.svg&#45;&gt;Makefile</title>
<path fill="none" stroke="black" d="M112.44,-209.63C112.44,-181.51 112.44,-125.27 112.44,-91.51"/>
<polygon fill="black" stroke="black" points="115.94,-91.41 112.44,-81.41 108.94,-91.41 115.94,-91.41"/>
</g>
<!-- rm_env -->
<g id="node3" class="node">
<title>rm_env</title>
<ellipse fill="none" stroke="black" cx="330.44" cy="-227.73" rx="44.69" ry="44.69"/>
<text text-anchor="middle" x="330.44" y="-224.03" font-family="Times,serif" font-size="14.00">rm_env</text>
</g>
<!-- rm_volume -->
<g id="node4" class="node">
<title>rm_volume</title>
<ellipse fill="none" stroke="black" cx="230.44" cy="-63.04" rx="61.99" ry="61.99"/>
<text text-anchor="middle" x="230.44" y="-59.34" font-family="Times,serif" font-size="14.00">rm_volume</text>
</g>
<!-- rm_env&#45;&gt;rm_volume -->
<g id="edge2" class="edge">
<title>rm_env&#45;&gt;rm_volume</title>
<path fill="none" stroke="black" d="M307.25,-189C295.53,-169.94 281.03,-146.35 267.8,-124.82"/>
<polygon fill="black" stroke="black" points="270.63,-122.74 262.41,-116.05 264.66,-126.4 270.63,-122.74"/>
</g>
<!-- rm_passwd -->
<g id="node5" class="node">
<title>rm_passwd</title>
<ellipse fill="none" stroke="black" cx="373.44" cy="-63.04" rx="63.09" ry="63.09"/>
<text text-anchor="middle" x="373.44" y="-59.34" font-family="Times,serif" font-size="14.00">rm_passwd</text>
</g>
<!-- rm_env&#45;&gt;rm_passwd -->
<g id="edge3" class="edge">
<title>rm_env&#45;&gt;rm_passwd</title>
<path fill="none" stroke="black" d="M341.74,-183.99C345.77,-168.72 350.43,-151.09 354.92,-134.13"/>
<polygon fill="black" stroke="black" points="358.36,-134.8 357.53,-124.24 351.59,-133.01 358.36,-134.8"/>
</g>
<!-- env -->
<g id="node6" class="node">
<title>env</title>
<ellipse fill="none" stroke="black" cx="606.44" cy="-227.73" rx="27.1" ry="18"/>
<text text-anchor="middle" x="606.44" y="-224.03" font-family="Times,serif" font-size="14.00">env</text>
</g>
<!-- volume -->
<g id="node7" class="node">
<title>volume</title>
<ellipse fill="none" stroke="black" cx="498.44" cy="-63.04" rx="44.39" ry="44.39"/>
<text text-anchor="middle" x="498.44" y="-59.34" font-family="Times,serif" font-size="14.00">volume</text>
</g>
<!-- env&#45;&gt;volume -->
<g id="edge4" class="edge">
<title>env&#45;&gt;volume</title>
<path fill="none" stroke="black" d="M595.89,-210.84C580.33,-187.4 550.64,-142.68 528.1,-108.73"/>
<polygon fill="black" stroke="black" points="530.99,-106.74 522.54,-100.35 525.15,-110.61 530.99,-106.74"/>
</g>
<!-- passwd -->
<g id="node8" class="node">
<title>passwd</title>
<ellipse fill="none" stroke="black" cx="606.44" cy="-63.04" rx="45.49" ry="45.49"/>
<text text-anchor="middle" x="606.44" y="-59.34" font-family="Times,serif" font-size="14.00">passwd</text>
</g>
<!-- env&#45;&gt;passwd -->
<g id="edge5" class="edge">
<title>env&#45;&gt;passwd</title>
<path fill="none" stroke="black" d="M606.44,-209.63C606.44,-188.21 606.44,-150.47 606.44,-118.78"/>
<polygon fill="black" stroke="black" points="609.94,-118.73 606.44,-108.73 602.94,-118.73 609.94,-118.73"/>
</g>
<!-- genconfig -->
<g id="node9" class="node">
<title>genconfig</title>
<ellipse fill="none" stroke="black" cx="725.44" cy="-63.04" rx="55.79" ry="55.79"/>
<text text-anchor="middle" x="725.44" y="-59.34" font-family="Times,serif" font-size="14.00">genconfig</text>
</g>
<!-- env&#45;&gt;genconfig -->
<g id="edge6" class="edge">
<title>env&#45;&gt;genconfig</title>
<path fill="none" stroke="black" d="M614.8,-210.31C621.85,-196.95 632.5,-177.8 643.44,-162.09 654.99,-145.5 668.71,-128.29 681.59,-113.02"/>
<polygon fill="black" stroke="black" points="684.41,-115.1 688.23,-105.22 679.08,-110.56 684.41,-115.1"/>
</g>
<!-- server -->
<g id="node10" class="node">
<title>server</title>
<ellipse fill="none" stroke="black" cx="692.44" cy="-227.73" rx="40.09" ry="40.09"/>
<text text-anchor="middle" x="692.44" y="-224.03" font-family="Times,serif" font-size="14.00">server</text>
</g>
<!-- save_server -->
<g id="node11" class="node">
<title>save_server</title>
<ellipse fill="none" stroke="black" cx="816.44" cy="-227.73" rx="65.79" ry="65.79"/>
<text text-anchor="middle" x="816.44" y="-224.03" font-family="Times,serif" font-size="14.00">save_server</text>
</g>
<!-- save_pki -->
<g id="node12" class="node">
<title>save_pki</title>
<ellipse fill="none" stroke="black" cx="950.44" cy="-227.73" rx="50.09" ry="50.09"/>
<text text-anchor="middle" x="950.44" y="-224.03" font-family="Times,serif" font-size="14.00">save_pki</text>
</g>
<!-- load_server -->
<g id="node13" class="node">
<title>load_server</title>
<ellipse fill="none" stroke="black" cx="1082.44" cy="-227.73" rx="64.19" ry="64.19"/>
<text text-anchor="middle" x="1082.44" y="-224.03" font-family="Times,serif" font-size="14.00">load_server</text>
</g>
<!-- load_pki -->
<g id="node14" class="node">
<title>load_pki</title>
<ellipse fill="none" stroke="black" cx="1213.44" cy="-227.73" rx="48.99" ry="48.99"/>
<text text-anchor="middle" x="1213.44" y="-224.03" font-family="Times,serif" font-size="14.00">load_pki</text>
</g>
<!-- client -->
<g id="node15" class="node">
<title>client</title>
<ellipse fill="none" stroke="black" cx="1316.44" cy="-227.73" rx="36.29" ry="36.29"/>
<text text-anchor="middle" x="1316.44" y="-224.03" font-family="Times,serif" font-size="14.00">client</text>
</g>
<!-- get_client -->
<g id="node16" class="node">
<title>get_client</title>
<ellipse fill="none" stroke="black" cx="1426.44" cy="-227.73" rx="55.79" ry="55.79"/>
<text text-anchor="middle" x="1426.44" y="-224.03" font-family="Times,serif" font-size="14.00">get_client</text>
</g>
<!-- get_all -->
<g id="node17" class="node">
<title>get_all</title>
<ellipse fill="none" stroke="black" cx="1541.44" cy="-227.73" rx="41.69" ry="41.69"/>
<text text-anchor="middle" x="1541.44" y="-224.03" font-family="Times,serif" font-size="14.00">get_all</text>
</g>
<!-- list -->
<g id="node18" class="node">
<title>list</title>
<ellipse fill="none" stroke="black" cx="1626.44" cy="-227.73" rx="25.2" ry="25.2"/>
<text text-anchor="middle" x="1626.44" y="-224.03" font-family="Times,serif" font-size="14.00">list</text>
</g>
<!-- help -->
<g id="node19" class="node">
<title>help</title>
<ellipse fill="none" stroke="black" cx="1700.44" cy="-227.73" rx="30.59" ry="30.59"/>
<text text-anchor="middle" x="1700.44" y="-224.03" font-family="Times,serif" font-size="14.00">help</text>
</g>
</g>
</svg>
